<svg xmlns="http://www.w3.org/2000/svg" viewBox="0 0 470.81812 470.81812"><defs><style>.a{fill:#176734;}.b{fill:#fff;}</style></defs><title>BankRoot</title><rect class="a" width="470.81812" height="470.81812"/><path class="b" d="M287.42445,103.81539c-18.36929,4.84212-27.98663,22.89134-20.95808,41.7088,1.36576-6.68248,4.92693-11.2796,2.982-17.89914-.80112-2.72647.35371-7.13275,2.1007-9.49,2.574-3.47319,6.47357-5.79691,10.32575-9.04641-1.17515,6.07657-1.39063,11.3523-3.28357,15.79093-1.83769,4.3091-5.397,7.75908-7.42513,12.30171,3.65608-1.61687,7.77286-2.22469,8.13706-7.877.14166-2.19836,2.02516-4.32225,3.273-6.36742,2.04419-3.35023,4.21733-6.60841,6.55148-10.24056,2.62683,4.3735,2.1316,9.55581.715,14.79576-1.10847,4.10015-3.30683,7.15555-7.46058,7.95878-8.24626,1.59478-13.38207,6.88072-13.1823,15.74054.2506,11.11706,1.70345,22.2031,2.675,33.29866a4.0482,4.0482,0,0,0,.54038,1.36623c3.15838-5.439,6.4527-10.7985,9.37443-16.38589a5.75486,5.75486,0,0,0-.1759-4.86934c-2.9643-3.87579-2.74371-7.87035-1.53364-12.25882.99068-3.59279,1.68338-7.28172,2.73779-11.943,3.27757,6.19058,6.44531,11.65035,6.34768,18.31712-.03332,2.274-1.33276,4.65731-2.44011,6.75161-1.70435,3.22359-3.74207,6.24094-5.6384,9.34578l.85837.77794c.83075-.78182,2.06271-1.39108,2.42427-2.3747,1.75125-4.76463,5.39432-5.24069,9.41165-5.67944,2.98564-.32609,5.88743-1.55086,8.5835-2.30711-.38923,10.09286-7.61881,15.69991-17.40183,12.65122-1.20712-.37617-3.56126.08826-4.01341.978-1.49549,2.943-3.60048,6.43687-3.2374,9.39887a195.349,195.349,0,0,0,5.016,25.318c1.36017,5.22777,4.32324,5.58424,7.61441,1.38473a30.552,30.552,0,0,0,3.55666-6.39219c4.96067-11.09739,10.05862-22.13459,14.60914-33.42827,1.47959-3.67223,1.83775-8.03768,2.00974-12.12051.2191-5.20129,1.647-9.404,5.65962-12.46834,1.76089-1.34473,3.41419-2.86359,5.05666-4.37907,8.78076-8.10181,10.36479-13.89994,6.82359-25.89222l5.95745-3.28517c1.72986,3.22055,3.44814,6.11724,4.88958,9.167,2.88205,6.0978,7.29351,8.63414,13.62327,7.79478,10.08119-1.3368,20.18734-3.39961,30.33-.55258C392.182,136.022,401.47919,138.75,411.538,141.645c-1.64639-1.35607-2.84078-3.00274-4.34364-3.45787-5.26012-1.59314-7.82914-5.52308-9.11762-10.88858-.83237-3.46609-1.77152-6.90221-2.80763-10.91223,8.23443,4.64324,16.25718,8.30518,16.6774,20.47144.14136,4.09193,3.46454,8.27586,5.895,11.98746,2.08276,3.18058,4.9675,5.74662,7.4976,8.58445l.9721-.84937a42.19793,42.19793,0,0,0-3.45305-4.6778c-3.07146-3.17317-3.7077-6.841-3.39435-11.35232.26-3.74285-.79784-7.59284-1.233-11.08329,5.85561,1.8837,12.37046,11.21429,10.788,17.56457-2.994,12.01491-1.26471,12.18081,5.32548,26.14469l1.18895-.17326c-.31654-1.51814-.74467-3.02073-.92662-4.55754-.38722-3.27063-1.62619-6.91694-.73844-9.75977,1.49137-4.77579,3.56532-9.157.63714-15.00382,7.40666,6.71067,8.96375,16.39714,4.944,24.21313-1.84983,3.59676-3.06122,7.57772-4.60734,11.49926-6.17372.53535-7.32423-.58753-10.02857-6.6539a18.43766,18.43766,0,0,0-6.11571-6.91048c-.894-.64526-3.96967.52543-4.79156,1.81021-2.36517,3.69713-5.46995,4.3962-9.21714,4.42268s-7.49181.50264-11.04067.767c2.19064-8.71611,10.25463-13.45878,18.6437-10.579,2.14663.73689,4.49134.79856,7.57436,1.3073a35.478,35.478,0,0,0-2.40746-3.28216c-18.03887-18.58087-39.38421-21.02781-62.45917-14.88712-1.03116.27439-2.38028.62425-2.90106,1.44438-6.06526,9.55107-17.45093,13.85331-21.41609,25.43691-.19161.55973-.29748,1.15379-.44326,1.73186l1.00411.69157c2.55287-3.82426,4.65422-8.1724,7.78339-11.328,3.23965-3.26708,7.4763-5.37739,12.02233-8.50683-1.93447,5.43688-2.98906,11.06869-5.80353,15.34528-1.78807,2.717-6.06084,4.171-9.45082,4.861-5.985,1.21825-8.937,4.30789-8.3222,11.08978,7.07609-3.088,14.25758-5.61177,20.78687-9.43787,1.99513-1.16912,3.20985-5.9899,3.02251-9.0107-.46548-7.50656,1.06893-10.6602,7.69841-13.21339,3.68036-1.41742,7.18337-3.37383,10.65627-5.03471,1.38728,5.77331-2.5942,13.29223-9.45943,16.00963-4.26932,1.68991-7.06183,4.356-7.48426,10.34544,6.69154-1.24263,13.179-1.77347,19.266-3.74861,7.58347-2.46071,12.74494-12.61242,12.02556-21.64808-.12963-1.62817-.35275-3.24763-.53212-4.866,7.72375-.80443,9.5781.5021,8.71532,8.12174-.86576,7.64579-3.0045,15.12292-4.77129,23.56211,1.601.14064,3.94991.7534,6.20625.47837a93.79273,93.79273,0,0,1,39.34073,3.75355c3.67067,1.128,6.94585,1.08188,9.99779-2.71319,1.51561-1.88459,5.07845-2.3312,7.75585-2.46322,1.79823-.08873,3.68221,1.48026,5.50244,2.36838,3.8825,1.89426,7.74849,3.82807,11.36739,5.62-5.44437,6.48118-11.546,7.42171-19.79823,2.41512-2.08357-1.2641-4.29119-2.2889-6.44181-3.42369l-.85968,1.777c4.35874,2.90487,8.559,6.15039,13.11533,8.63057,6.03718,3.28628,12.376,5.91879,18.53986,8.94026,3.72008,1.82353,4.293,5.61977,5.10384,9.47089.97238,4.61837,2.56632,9.08362,3.70974,12.99467a19.27088,19.27088,0,0,1-15.37853-16.67058c-1.02391-8.91826-1.924-9.84752-10.66733-11.24336,3.41009,7.74459,6.588,15.80568,10.50767,23.42,1.42989,2.77765,4.60813,4.51328,7.01782,6.68652,2.42658,2.18839,5.11032,4.10035,7.28179,6.54828,2.90931,3.27979,5.43409,6.95863,7.9768,10.27422-6.79294,2.64456-14.971-.912-20.86038-9.026.59276,2.81987.66582,5.93985,1.88036,8.40063,3.06252,6.205,6.80087,11.8612,13.409,14.40681a10.00034,10.00034,0,0,1,6.48974,9.52719c.04024,5.11492-1.08651,10.2406-1.83413,16.40942-2.66018-4.92495-4.56969-8.34112-6.36153-11.828-.88612-1.72437-2.28161-3.61853-2.20038-5.36824.40838-8.79938-4.83015-13.53822-10.865-18.60064l-2.01825,6.5853c-3.51448-2.69952-6.48614-5.21772-6.37976-10.49974a67.127,67.127,0,0,0-9.34248-35.58123,21.58069,21.58069,0,0,0-1.29826-2.05881c-.14306-.19263-.52493-.17778-1.92274-.58921,3.73715,7.11972,7.66249,13.84322,3.48283,21.34093-1.31846,2.36515-3.76508,3.99443-5.86146,6.12963-.43852-5.1431-.92948-9.31743-1.09465-13.50681a18.6628,18.6628,0,0,1,.73232-6.29953c2.335-7.26373.8413-12.949-5.11789-17.36753-6.70145-4.96887-14.45122-6.61652-22.32422-7.32109-9.039-.80886-18.00262-1.54665-26.81612,2.7949-3.26707,1.60936-7.74715.42852-11.67174.36292-5.61631-.0939-11.43981-1.45357-16.80351-.28258-12.36644,2.69979-24.50881,6.59954-34.89614,15.31482,6.21226,1.19819,11.95231-.30878,17.52876-3.56747a67.07892,67.07892,0,0,1,9.11747-4.20714c3.79944-1.51223,7.682-2.78036,11.24471-4.05264-.24718,5.89343-6.12115,14.51387-12.0742,15.82277-2.32392.511-4.962-.619-7.45239-1.03367-2.56677-.42735-5.18452-1.48583-7.67872-1.20731-3.95782.442-7.793,2.088-11.7497,2.64189-6.07469.85047-10.34641,4.28153-13.04693,9.93849a59.20579,59.20579,0,0,0-5.66963,31.28569c2.07479-1.217,3.51012-1.93754,4.8291-2.85387,5.313-3.691,11.03542-6.89778,15.71528-11.37379,2.85773-2.73329,5.66816-7.41729,5.743-11.28762.1837-9.49729,5.93718-13.12109,14.03008-13.48534,1.9846-.08932,3.97551-.01331,6.73065-.01331-5.13809,5.50461-7.696,12.78291-15.90759,13.7499-2.11919.24955-3.76321,5.22083-5.62552,8.0231l1.30957,1.94042c6.27794-2.37017,12.59152-4.63769,18.81422-7.16691,2.13929-.8695,3.93228-2.81447,6.09242-3.52944,4.53372-1.50058,5.6425-5.15244,5.03439-9.35261-1.57492-10.87771,1.03915-16.6,14.67183-22.24329-1.18858,4.12127-2.07517,8.69317-3.85675,12.81222-1.07173,2.478-3.20186,5.17368-5.45271,6.13119-3.69117,1.5702-4.41765,3.536-3.03791,7.05773,3.594-1.598,7.10284-3.043,10.49939-4.7497a4.06125,4.06125,0,0,0,1.90012-2.58878c.80277-5.155,4.0884-7.88047,7.79947-10.56493,2.74086-1.98261,5.00706-4.73313,7.44093-7.099a15.148,15.148,0,0,1-12.64389,21.68043c-6.60989.45421-9.3307,1.72314-13.05817,6.60369,9.58621-1.13551,18.55181-1.86363,27.40084-3.38491,4.50112-.77379,5.50264-3.91925,4.37187-8.76a10.71282,10.71282,0,0,1,.39388-4.77294c1.1434-4.51958,2.464-8.98672,3.696-13.40505,2.85926,3.65605,6.74369,8.37606,4.87511,14.09711-1.5855,4.85429-5.5375,8.80414-8.6643,13.48649.98948,0,2.167.3166,3.12083-.0492,9.08877-3.48534,16.84444-8.42522,18.34283-20.09778.20626-1.60655,1.146-3.08637,1.54479-4.68366,1.1743-4.70411,3.5604-5.33407,7.50521-3.37665,2.50611,1.24355,3.09385,2.52449,2.47069,5.3447-2.03248,9.19832-6.42634,16.84883-12.25927,23.75512-1.21784,1.442-2.61,4.534-2.00672,5.61429,1.86106,3.333,5.15409,3.94214,8.5557,2.43986,2.52371-1.11459,3.07927-3.02932,2.71529-6.02826a21.79371,21.79371,0,0,1,.80563-8.63987c1.26674-4.19474,3.19947-8.15413,4.95634-12.47528,4.21768,5.01106,6.66128,11.23106,3.88093,17.16749-2.38591,5.09427-7.26983,8.81959-11.41088,13.5648,3.25928.73753,7.03687,1.1507,10.51045,2.488,4.54555,1.75,9.41312,3.436,13.15884,6.53857,13.64243,11.29987,23.45383,25.93037,29.412,43.38667,2.65664,7.78354,4.74094,15.79942,6.97891,23.74484A13.28443,13.28443,0,0,1,485.775,321.6868c-2.267,3.47455-4.16875,7.228-6.05116,10.54264-2.59842-5.97205-2.44675-17.11376.64128-25.62273a18.57677,18.57677,0,0,0-1.54411-16.92539c-.877,7.35922-1.33034,15.5118-2.959,23.37974-1.18846,5.74137-4.26,10.99588-5.87982,16.672-1.69718,5.94711-3.327,12.08611-3.74049,18.23916-.3342,4.97253-1.24707,9.00209-4.52629,12.56638-3.08571,3.35393-5.812,7.09476-8.64741,10.60458-3.91755-9.78354-1.15715-19.02994,7.54832-23.06095,5.25259-2.43223,2.70933-6.91648,3.6895-11.2522-4.98529,3.23763-9.62336,5.81828-13.74757,9.14438-1.6095,1.298-2.466,4.17384-2.95571,6.50545a14.22724,14.22724,0,0,1-6.413,9.28634c-3.89406,2.68277-7.48371,5.88258-10.98524,8.68218-2.84453-8.01539,3.31626-21.22043,12.3043-24.31613,10.84456-3.735,20.01506-10.03983,24.86233-21.5406,2.69752-6.40028,4.07185-13.45312,5.2307-20.24273-4.26825,4.511-8.78341,8.78931-12.69,13.64113-1.69532,2.10554-1.719,5.70228-3.22867,8.08231-4.34953,6.857-11.02909,9.73225-17.32355,11.39693,2.29883-4.89757,5.03948-10.05575,7.17408-15.49231,1.81539-4.62354,4.74678-6.61436,9.20649-6.908,7.17461-.47237,11.96682-5.82862,12.96893-15.43593-2.45938,2.6947-4.35647,4.47561-5.91788,6.5519-2.51932,3.35014-5.69475,4.66378-9.60179,5.17588-3.78391.4959-7.463,1.92761-11.14721,2.93706a26.25252,26.25252,0,0,1,12.3089-14.887,7.31,7.31,0,0,1,4.47706-.52983c9.75082,1.73046,14.45176-4.44246,11.17626-14.828-5.612-17.794-16.54757-29.79867-33.19434-35.46887-5.42857-1.84911-10.95349-3.367-16.43436-5.03642q-.4478,1.20562-.8956,2.41113c5.20471,2.85617,10.14887,6.87237,15.66922,8.32305,10.93328,2.87316,14.88853,9.94025,10.39295,21.21554a11.17525,11.17525,0,0,1-2.37946,3.61064c1.50927-6.586-2.95828-9.55583-6.12367-13.0835-3.108-3.46374-1.63378-10.77831-8.671-11.4733,2.4984,6.57459,4.74575,12.82533,7.23232,18.96263,5.38065,13.28058.40923,23.87964-13.67279,27.12873,5.7264-4.77326,4.0202-11.29446,4.53458-17.40005a17.60187,17.60187,0,0,1,3.341-8.4584c2.03538-2.75706,2.21188-5.12945,1.27567-8.26371-3.41336-11.42741-11.3265-17.62957-21.39025-22.2326,3.50673,5.25526,6.75008,10.02919,9.9084,14.86808,5.5978,8.57634,5.20187,15.44908-1.31538,23.41147-1.38493,1.692-2.87381,3.28446-3.87432,4.422-.70651-4.61038-1.18047-9.13984-2.13817-13.54631-.94849-4.3643-.72718-8.02966,2.25267-11.60583a7.01861,7.01861,0,0,0,.67236-6.00425c-4.22414-8.35483-10.54487-13.79131-19.687-14.56744-2.40252-.204-4.80219-.44668-7.20319-.67161l-.4763,1.28541c2.3473,1.2419,4.58891,2.87585,7.0608,3.65555a15.98311,15.98311,0,0,1,10.7574,19.87958q-.13348.44824-.293.88808c-3.44532-3.33521-7.20172-6.82718-10.7865-10.51443a13.4475,13.4475,0,0,1-3.47251-5.00022c-1.94845-6.4185-4.08562-9.14363-10.29207-9.04865-5.16582.079-10.31032,1.78772-15.46425,2.77463q.07188.81433.1439,1.62873c1.08.45835,2.15325.93666,3.24113,1.37206,14.58983,5.84,25.96361,15.14447,30.07932,32.39627a10.49391,10.49391,0,0,0,2.07993,4.40362c4.74219,5.323,4.22851,11.219,1.55665,17.12018-1.8537,4.09419-4.342,7.85211-6.41366,11.52428-.85121-6.48085-1.774-12.562-2.384-18.67974-.20487-2.05445-.248-4.66455.725-6.22582,4.00073-6.41965,2.16261-12.07316-1.34234-17.61583a32.38365,32.38365,0,0,0-6.05528-7.13384c2.78624,5.35455,5.70261,10.499,3.461,16.90175-2.20095,6.28655-6.65814,9.26059-11.89809,10.56926.639-5.21792,1.15468-10.51566,1.99965-15.75125a10.73927,10.73927,0,0,1,2.20931-5.32448c3.38928-3.66523,2.51253-7.36829-.37241-10.00748-3.18389-2.91277-6.982-5.63208-10.93186-6.86827-15.2511-4.77313-28.457,1.64084-41.07333,10.05688a81.61208,81.61208,0,0,0-8.55479,6.82167c-7.04606,6.22062-9.17576,13.92885-7.06585,23.68408a26.00972,26.00972,0,0,1-.9111,13.489c-5.82762,16.145-4.17065,32.14378-.13387,48.1288,1.74905,6.92593,5.873,12.32679,11.342,16.59509,6.09444,4.75639,11.6261,10.4434,17.99947,14.67333,8.49135,5.63578,18.18128,7.99941,28.00423,9.72124,4.19886.73606,8.24122,2.51639,12.60705,3.90232-5.48728,6.7523-12.63059,8.32934-19.713,5.95268-11.62032-3.89945-23.41577-7.19073-35.15558-10.66643a11.66206,11.66206,0,0,0-3.19312-.03854c2.7929,11.16887,12.12835,19.39744,22.45172,19.534,12.03219.15911,23.13656-3.71381,33.41124-10.20026,8.58979-5.42283,17.42349-5.9,26.77256-3.16612a57.88932,57.88932,0,0,0,10.00069,1.79919c4.75709.51619,9.06041.23971,11.58859-5.6137.80313-1.85951,3.92177-3.27722,6.13113-3.57,8.959-1.18708,10.00511-2.438,8.26264-11.78125,5.9875,5.03919,5.53406,14.34919-1.20143,17.71-6.90454,3.4452-10.46926,8.62013-10.62063,17.01477-.23776,13.18732-7.92994,20.24655-18.6612,24.95943l-.77842-3.93932c-3.40748,16.3767-13.988,23.25216-28.26591,27.16934,1.69014-5.74023,2.93943-9.91122,8.58944-11.20432,3.5905-.82171,6.95986-3.48753,10.06983-5.87332,3.95171-3.03152,4.78867-7.81789,3.91616-12.59807a24.76645,24.76645,0,0,0-12.07158-17.44124c-.9287-.55376-2.26887-.3001-3.41859-.42a26.74988,26.74988,0,0,0-.25905,3.74863c.06008.96919.86514,1.97671.72642,2.85379-1.51546,9.57962,5.26108,9.36125,10.71608,10.98934,1.47333.43974,3.65967,2.02654,3.7283,3.20845.14178,2.44176-.72691,5.0014-4.18962,4.07045-5.82635-1.56641-9.96432,1.26849-12.65126,6.61243-3.0904,6.14619-5.75168,12.54355-8.79166,18.72106-6.17727,12.55273-17.90737,19.076-29.45529,16.40656a51.65907,51.65907,0,0,1-6.4689-2.41021c2.44118-6.75963,3.89134-7.65064,9.57288-6.79578,6.22377.93649,11.6981-.764,15.70093-6.27826,4.75214-6.54651,8.63492-13.33135,6.67131-22.43285-.41454-1.92155,1.07783-4.80564,2.42624-6.60048,3.97227-5.28741,5.50523-10.77881,2.41462-17.07172-1.94164-3.95353-.81806-6.679,2.59276-8.63565,2.58142-1.48081,5.08993-3.31981,7.84931-4.15752a8.62381,8.62381,0,0,1,6.40283.504c8.777,5.3131,14.29005,13.08755,13.87615,25.02272,7.68444-4.2719,11.0391-10.92881,11.50951-19.377.07544-1.35468-1.22542-3.74265-2.30414-4.07365-6.338-1.94468-12.72864-4.05921-19.23573-4.8971-8.56945-1.10358-16.09124,2.4331-22.212,8.973a20.27271,20.27271,0,0,1-11.26652,6.17912c-4.46143.94042-8.78528,3.05842-12.93528,5.1929-3.84312,1.97661-4.34518,5.67258-1.62554,10.16069,4.76654,7.86592,9.52323,15.84186,19.40877,16.88813.38819.04109.73576.53155,1.48767,1.10813-.63127,1.75165-1.273,3.559-1.93332,5.35835-1.03052,2.80786-2.58006,3.43032-5.44448,2.55359-11.005-3.36838-10.93323-3.15029-17.44571,6.79878-7.77318,11.875-17.105,21.8842-29.6437,27.90955-11.44833,5.50148-23.96042,6.57756-35.64374-6.34192,1.12692-1.86783,2.32831-3.85917,3.45-5.71831.71359.14344,1.07038.10494,1.28808.27489,7.35513,5.74237,11.50948,4.68632,14.88016-4.41778,5.949-16.06782,5.17044-31.01273-5.9031-44.80759-4.56331-5.68475-7.50042-12.88168-11.32132-19.29024a26.15352,26.15352,0,0,0-3.64157-4.00885c-.94812,1.41991-2.33143,2.69853-2.77114,4.28348-2.24181,8.08094-6.08056,14.78715-12.426,19.96169a17.47314,17.47314,0,0,0-5.10629,7.56856c-4.00589,11.78284-4.5463,23.81181-.43569,35.733,2.92593,8.48543,7.2145,9.97328,14.34068,5.393,8.9199-5.73309,15.02934-22.03565,11.68085-31.80484-.67758-1.97691-2.43018-3.52272-3.68723-5.26729-1.6397,1.582-3.88777,2.83212-4.80828,4.80649-3.12428,6.70132-1.20548,13.37049,1.154,19.79968,1.65684,4.51453,1.82282,4.44328-1.96943,8.34948a38.47487,38.47487,0,0,1-6.93307-19.11262,33.13374,33.13374,0,0,1,6.26236-22.46383c3.558-4.98746,7.42084-5.01342,11.154-.26115a27.39479,27.39479,0,0,1,5.60238,20.52713c-1.40847,12.71067-6.88514,23.466-14.92659,32.61414-7.13457,8.11638-16.18931,9.14728-25.68514,6.44391-11.20915-3.19128-20.10454-10.521-28.53534-19.6845,2.5496-2.1878,4.88257-4.18977,7.36605-6.32085,6.19165,5.595,11.01686,13.159,20.744,13.1023-2.37272-9.64877-4.5517-18.50993-6.889-28.01487-1.33771,1.11452-2.53763,2.02979-3.65045,3.05569-5.28087,4.86869-10.639,9.64672-15.78452,14.67837-15.005,14.67287-33.18508,4.87862-40.294-10.07273,4.24-1.11277,7.85119-2.39239,11.57247,2.19069a15.04852,15.04852,0,0,0,21.84181,2.12024c8.47464-7.00886,17.73739-13.386,20.60721-25.88588,1.01482-4.42022,4.31791-6.7848,8.707-7.91739,10.7966-2.786,18.56538-22.15671,12.93846-33.18552-1.50363,1.49866-3.13811,2.66951-4.21426,4.27761a55.13727,55.13727,0,0,1-20.37466,18.43794c-1.10679.58431-2.15644,1.29838-3.21893,1.97726-10.6209,6.78639-14.07166,15.299-9.90516,27.78236,1.9273,5.77433.72074,8.95652-3.62206,11.77526-.8942.58042-1.69631,1.32675-2.92961,2.305-1.43553-2.41715-2.8705-4.54983-4.02708-6.84651-1.77825-3.53114-4.08461-3.84049-7.68938-3.17575-8.41453,1.55191-17.07286,3.628-25.4351,2.88674-9.26968-.82161-16.82423-7.07765-22.355-15.43742-1.03487-1.56424-1.37521-3.66611-2.23678-6.083-6.43552-1.74871-13.04354-5.33054-16.84862-12.33366-2.30843-4.24858-3.39217-9.60763-3.88389-14.59939-.69024-7.00679-3.4385-11.9283-9.2136-14.98625-7.83446-4.14836-9.05516-11.07477-2.70208-19.272-.36943,2.1488-.6852,3.47562-.81312,4.82339-.40966,4.3162,1.7367,7.31524,5.71724,7.17845,5.18156-.17806,8.76118,1.79074,11.402,6.75671a6.66515,6.66515,0,0,0,5.338,2.90933,134.75292,134.75292,0,0,0,17.34441-2.49735c7.61377-1.54948,12.60941-1.362,18.86961,2.65963-3.42569,1.29844-6.77022,3.04056-10.29538,3.795-5.809,1.24322-11.73785,1.82487-17.60854,2.74263-1.05968.16563-2.07144.66155-3.12451.90968-7.49438,1.76568-7.95083,2.12366-6.00621,10.16843,3.36283,13.912,10.272,15.59583,22.11949,13.74288,2.86023-.44737,5.61143-1.71026,8.17738-2.52353.61714-3.999,1.26964-7.88953,1.78162-11.80159.11615-.88771-.007-2.42684-.45577-2.65274-.8237-.41453-2.39139-.53614-2.9171.02391a137.67793,137.67793,0,0,0-10.88453,12.48376c-1.494,2.03418-2.42881,4.87638-5.0548,3.265-1.12193-.68846-1.677-3.85024-1.36054-5.65671,1.68887-9.64028,6.97206-15.66727,15.64834-19.16593,6.52081-2.62953,12.40316-7.07391,18.679-10.47445,1.94338-1.05306,4.31711-2.07634,6.37118-1.84416,12.834,1.451,24.625-1.53052,34.93617-9.81664,3.1722-2.54915,5.21643-6.76708,7.69982-10.28476,2.11723-2.999,3.58979-6.88657,6.27743-8.99254,8.56553-6.71178,9.96067-15.65077,7.72523-25.7748a24.26552,24.26552,0,0,1,1.24474-14.58069c9.531-24.78255-3.355-56.92977-26.65669-65.8225-5.8735-2.24154-12.24976-3.14525-18.47114-4.05323a59.08887,59.08887,0,0,0-15.50771-.65211c-5.79249.7061-10.2659,3.59631-10.85732,11.30174-.23455,3.05566-2.77592,6.14884-4.798,8.74014-2.81707,3.61007-6.13261,6.765-9.463,10.36115-1.01116-7.20464-1.17371-14.50418,3.20069-20.98155a13.92021,13.92021,0,0,1,5.05274-4.16553c5.56259-2.9292,11.256-5.56758,16.89826-8.31975l-.18439-1.63713c-1.47888-.35631-3.0242-1.211-4.42643-.9923-15.05168,2.348-27.318,9.10851-33.62374,25.2146-1.89864,4.8496-1.71266,8.97147,1.15294,13.60157a17.31785,17.31785,0,0,1,2.29472,10.61c-1.46349,9.94562-1.82512,9.88334.66634,18.24867l-.93023.96175c-3.80864-4.57069-7.96575-8.86521-11.31071-13.80339-2.47585-3.65505-1.84786-8.037.84913-11.62636,2.86822-3.81723,3.57972-8.106,4.07613-12.91833.54313-5.26514,2.6638-10.33987,4.24774-16.04036-5.16282,4.52779-11.94108,7.02022-11.57443,16.06675a5.76854,5.76854,0,0,1-2.08662,4.19748,20.23741,20.23741,0,0,0-9.32587,16.31225l-1.16419-.05414c-1.06324-3.56287-2.55074-7.05167-3.09561-10.70495-.94417-6.33068,2.03-10.62038,7.409-13.43842,3.345-1.75245,6.28923-4.49952,9.21687-7.0628,5.26566-4.61036,10.38077-9.42174,15.56549-14.14051a19.99726,19.99726,0,0,0,3.16295-3.29459c-14.2864,4.989-28.1395,10.82863-39.49561,21.82639-4.427,4.28729-5.47936,12.30353-3.30866,18.53134a16.698,16.698,0,0,1,.38971,6.826c-.46692,4.79818-1.2537,9.56-1.86332,14.00085-9.50189-6.27642-11.05673-15.48041-3.95149-25.57271,1.69016-2.40072,2.47656-5.54594,3.67866-8.34871q-.62841-.54876-1.25683-1.09746c-2.88777,2.87375-6.05514,5.489-8.58654,8.69239-2.6523,3.3563-4.69415,7.277-7.00282,10.95107l-1.40763.04181c-.12085-2.4448-1.05144-5.28429-.22528-7.26749,4.02168-9.65384,9.25739-18.4283,17.30472-24.92189,4.631-3.73693,4.86606-5.59275.61415-9.34347-10.09628-8.90624-15.1037-20.004-13.37289-34.81771-4.39047,2.02322-5.71937,5.19223-5.73883,9.50259-.04837,10.69779-4.71341,17.60158-13.4238,21.20608.69232-4.90711,1.64913-10.30867,2.16988-15.75894a13.92615,13.92615,0,0,1,7.88471-11.91081,20.83157,20.83157,0,0,0,7.81083-7.14021c4.88574-8.18483,9.11888-16.82552,13.457-24.99673-5.83576-.443-9.651,2.74685-10.19973,9.20168-.58867,6.92468-7.4427,14.12316-14.93147,16.17486,1.22811-4.39549,2.50663-9.132,3.87888-13.83668,1.31983-4.5249,3.3916-8.15464,8.35319-8.851,1.73232-.24317,3.35183-1.4269,5.1913-2.2571-4.61673-4.31049-17.58557-.33583-24.59991,7.13053.3549-8.5527,6.471-16.67692,13.3206-16.69657,2.73323-.00783,5.44738,2.11121,8.21394,3.12206,3.05441,1.116,6.228,3.09415,9.22555,2.85752,4.51891-.35673,8.93014-2.30956,13.38313-3.58282,2.14659,7.1865,1.49735,8.79347-3.25855,13.317-7.35914,6.99967-11.73894,15.7026-11.9569,26.60944-.2984,14.93116,15.82073,27.98254,26.60556,23.991a68.64139,68.64139,0,0,1,8.39677-2.005l-.14663-1.54357c-1.60508.085-3.34674-.23467-4.78836.33463a8.24682,8.24682,0,0,1-9.44933-1.968c-3.50954-3.37255-7.31306-5.58308-12.4008-3.96456,3.9077-8.216,18.62831-8.75384,23.441-1.27742,4.30693,6.69077,15.001,6.898,20.07749.41448,2.04748-2.615.63507-4.59051-1.3257-5.73044-3.50405-2.03712-7.27974-3.52041-10.90471-5.32267-12.19577-6.06344-22.36744-.64084-32.23135,6.584-.50618.37074-.97532.80039-1.47776,1.17757a1.14641,1.14641,0,0,1-.44953.10162c-5.133-6.21908-4.586-9.69635,2.20955-13.04514,4.06656-2.004,8.24122-3.75013,12.35515-5.64307,4.7558-2.18832,5.61756-5.22228,2.046-9.06358-2.68639-2.88923-3.40845-6.00548-3.40049-9.87865.01187-5.81343-1.37081-11.81877-.41989-17.39517,1.28317-7.52519,4.2183-14.72076,6.39547-21.89607-3.26159.63883-5.88269,3.5973-6.824,7.74689-2.46271,10.85586-10.92325,12.23249-18.9546,14.67084,5.96655-3.84467,8.04023-10.2783,10.27062-16.698a8.70781,8.70781,0,0,1,8.12767-6.33163,66.84615,66.84615,0,0,0,6.9011-1.21106c-9.71614-5.22642-26.08873,3.86318-30.0072,13.57085-1.72427-4.23578-.4276-11.25324,3.10412-15.88493,3.28008-4.30167,7.23979-7.33983,12.74306-6.55613a6.764,6.764,0,0,1,3.2965,1.61091c4.77758,4.18352,13.04123,5.27669,18.35765,1.99715,2.66581-1.64448,4.99613-3.913,7.59614-5.69823,2.43356-1.67092,5.02294-3.07636,8.25377-5.02738-3.923-1.14009-6.86726-2.73412-9.65431,1.11068-.93656,1.292-2.90587,1.796-4.47953,2.44256-4.05834,1.66752-8.15936,3.21355-12.03169,4.72549,2.91391-13.31924,7.73744-16.28775,19.95293-12.07874a13.82909,13.82909,0,0,0,7.47946.37483c-2.25733-2.6356-4.43818-5.35663-6.82108-7.85192a3.67313,3.67313,0,0,0-2.9095-1.0024c-4.3647.81607-8.8506,1.40949-12.96847,3.04148-2.63324,1.04358-4.70122,3.756-7.24943,5.91219,1.1669-5.9667,3.2458-11.05636,8.28965-14.26584,7.40465-4.71172,12.70388-3.2589,17.0056,4.7531,4.48828,8.35947,7.95459,10.34127,17.64,9.88292-.279,3.75193-.7936,6.70618-4.64251,8.643-3.68349,1.85361-7.17594,4.63983-4.48554,10.57945.62689,1.384-1.19145,4.4492-2.41328,6.34154-2.05978,3.19018-4.54215,6.061-6.82961,9.04375-4.39953-4.473-3.55555-13.00788,2.143-17.63851,2.75391-2.2378,5.18418-4.94161,8.66782-8.31169-14.21094,1.86911-26.47225,18.37529-27.22173,34.84332-.68842,15.12595,8.77666,31.87493,21.00094,34.79776-2.04869-2.773-3.42622-4.47933-4.63654-6.31468-1.62932-2.47066-3.50935-4.86619-4.58878-7.61264-1.33459-3.39567-1.95841-7.11821-2.85685-10.57457,10.46556-.14969,16.36215,7.91811,13.021,18.91773a6.55046,6.55046,0,0,0,2.45686,7.81427c4.04126,3.01642,8.17806,6.11324,12.67354,8.14272,11.85937,5.35391,23.93649,9.88469,37.22243,7.04951,5.04437-1.07644,9.7481.2486,13.95961,3.69873a90.0968,90.0968,0,0,0,7.594,5.0767c.06064-7.86345-4.14082-12.26236-10.8608-12.88344-2.21737-.205-4.86236-2.03891-6.28248-4.0001-4.62327-6.3848-5.00283-6.95781-11.683-8.5018,6.59717-7.52069,20.8026-3.0977,23.99957,7.35466.92357,3.01958,2.424,5.83271,4.00175,9.5445,2.886-7.13664,2.266-9.42151-1.58613-13.76827-1.8326-2.068-2.81159-5.02726-4.15087-7.59888a29.86022,29.86022,0,0,1-3.24133-8.5515c4.22908,2.83477,8.81356,5.21587,12.56752,8.65712,2.69053,2.46642,2.15237,6.36742,1.37553,10.272-1.00794,5.06639-1.81063,10.64214-.88088,15.599,1.76509,9.41033,10.31551,11.00161,16.991,14.42063.45537.23322,3.02556-2.21083,2.90025-3.13948-1.21562-9.00784-.95638-19.05361-4.801-26.61082-3.71581-7.30409-10.33457-13.21271-15.26851-20.27445-5.30469-7.59234-24.93528-8.90548-32.8365-4.33866-4.53249,2.61974-5.8468,6.10078-5.41774,11.47565.22355,2.80052-.60812,5.80455-1.40188,8.56924-1.04836,3.65133-2.52709,7.1581-3.71952,10.44753-7.479-6.46166-7.19613-16.52225,1.05436-23.57372,3.0855-2.63712,5.465-6.24075,8.19-9.43135-6.48221-4.83234-12.0667-3.74394-15.5858,3.126-2.01278,3.92932-5.11738,5.56908-8.92359,6.282-5.32991.99819-10.16631,2.84987-12.644,9.35137-1.04182-13.3709,7.94964-22.1542,16.56954-21.2349,3.13215.33406,6.387-.678,9.55317-1.8695A45.53015,45.53015,0,0,0,172.542,187.836c-8.55108.57113-17.05035,2.05024-26.07147,3.19466-.27714-1.76956-.653-3.83595-.91416-5.91915-.348-2.77637.63873-4.29288,3.38614-4.77957,8.51616-1.50862,16.98911-3.301,25.49983-4.84815,6.82214-1.2402,7.75066-2.8348,4.61831-9.51937-2.91647-6.22388-1.3133-12.39918-.28288-18.6011.35292-2.12425,1.24335-4.1451,1.58486-6.27023.68579-4.26741-.23578-7.61873-4.06533-10.135-1.74953-1.14953-3.09689-3.93345-3.58111-6.23364-1.12888-5.36275-1.62429-10.88151-2.32675-15.97744,7.80747,1.90165,12.683,10.85684,10.25563,19.83133-.457,1.6896.38086,3.789.62121,5.69931l1.49121.08855a114.27621,114.27621,0,0,0,4.36992-10.81414,8.75367,8.75367,0,0,0-.481-5.74456c-2.67325-5.43576-2.45373-7.57122,1.47561-12.17558,3.21762-3.7704,6.158-7.81768,9.09887-11.58547,3.66092,4.73834,3.57287,10.43781-1.0877,15.61821-1.82828,2.03217-3.94659,3.81662-5.49157,6.06819-.9565,1.39393-1.08276,3.45447-.63836,5.76948,5.00526-4.33149,10.155-8.48911,14.91505-13.11577,1.20251-1.16882,1.06288-3.87424,1.71517-5.80427.84127-2.48917,1.38325-5.3492,2.90057-7.26516,3.032-3.82856,6.64009-7.1232,9.76649-10.38405.26607,5.2323,1.50014,11.86567-3.61841,17.058-1.37159,1.39136-3.49887,1.88555-5.222,2.90475-1.45462.86036-2.82642,1.88459-4.23487,2.83625l1.06051.97071,21.88782-2.42854c-1.86346,5.81037-3.504,8.18214-8.65837,7.62069-8.69082-.94667-15.69317,4.01487-21.76322,10.336-6.58683,6.85937-12.42258,14.1695-10.44577,25.19411.347,1.935.93665,3.82109,1.448,5.71912.97452,3.617,2.4589,7.16739,2.84161,10.85357.5,4.81626,2.32711,8.14006,6.34486,10.18566,7.86836,4.006,15.73426,7.45854,24.84951,6.23124,3.44608-.464,7.11009.96569,10.895.78754L214.12466,169.197c2.36616-2.71,8.981-3.821,14.82969-1.41125,4.27284,1.76051,6.53777,5.05463,6.64091,10.30471.12661,6.44354,9.41434,12.43091,14.92651,9.79194a3.52529,3.52529,0,0,0,1.22406-2.7018,13.2569,13.2569,0,0,0-.82553-5.39162c-3.37192-7.00786-6.56047-14.195-10.66926-20.68476-2.66075-4.2027-7.50695-5.24691-12.14464-4.08237-1.41457.35521-2.40936,2.51361-3.675,3.75215-1.82388,1.78481-3.50721,3.9296-5.6343,5.11509-3.20068,1.7838-6.73347,2.87087-11.06868,4.639,1.37878-3.402,2.10966-7.02373,4.06411-9.52822a18.27431,18.27431,0,0,1,8.05142-5.99017c3.036-1.01427,6.58744-.22361,10.32925-.22361-4.14289-5.26109-14.8151-5.86465-18.63625-1.56108-.21169.23841-.60359.52462-.57731.74117.76846,6.33779-4.65913,8.89513-6.84441,13.40124-1.13616,2.34279-1.23922,5.27179-1.79285,7.86079-7.67766-8.1803-5.28154-19.77693,4.82092-22.97044,3.50579-1.10824,6.93547-2.49842,11.40689-4.1265-10.1657-4.52006-19.327-1.62965-28.381-.21091-1.18843-6.36912-.09533-8.6651,5.19832-9.237,6.88814-.74413,13.83735-1.02552,20.76341-1.08559,4.12954-.03583,6.71646-1.18382,7.34729-6.08982,1.27674-9.92945,5.53493-18.61508,9.95141-27.26447a11.85529,11.85529,0,0,0,1.00966-7.3643c-1.02449-4.366.17341-7.419,2.98961-10.27026,3.2705-3.31122,6.43324-6.747,9.46846-9.94506,3.19707,7.245.95324,15.04593-5.93175,19.724a13.97048,13.97048,0,0,0-4.6615,6.52408c6.59785-4.68347,14.40891-7.48535,18.77963-15.148,4.27735-7.499,6.63355-8.30918,14.52206-5.42331a79.6296,79.6296,0,0,0,8.52873,2.15724c-3.10306,5.26589-8.22067,7.88006-14.40488,6.37587-4.88406-1.18793-8.6871.27883-12.7639,4.98979,9.34172-1.26491,17.77086-1.61368,26.15539,2.24982-3.76781,4.04863-7.87081,3.78471-12.22949,3.00137-11.44925-2.0575-30.54961,7.80337-32.44082,25.89716-1.01135,9.67575,2.52506,16.4778,11.17032,19.066.87557.26216,3.03672-1.11839,3.20863-2.04041a115.53927,115.53927,0,0,0,2.36878-17.24633c.13584-4.13547-2.71575-6.92951-6.3606-8.31051-1.56834-.59423-3.21894-.9344-5.02244-1.44371,1.7417-4.46718,4.304-6.58379,8.70733-5.38721,1.63511.44435,3.38354.398,5.02108.835,5.29093,1.4121,9.05389-.07858,13.55038-4.12549,5.5253-4.97281,12.87689-7.66254,19.60385-10.94386,3.431-1.67362,6.17455-2.67538,3.85-7.83082-1.57717-3.49783,1.39357-6.56972,6.61922-8.31227,3.05713-1.01942,5.95386-2.60172,9.27082-4.08663a10.19161,10.19161,0,0,1-3.33239,10.43231c-3.00034,2.551-6.52958,4.37419-9.8253,6.51867l.3278,1.30629c6.82182,0,13.65824.25829,20.45469-.19059,1.60008-.10568,3.07618-2.58288,4.59036-3.99294,2.08593-1.94245,3.89245-4.51649,6.29047-5.72062,3.62275-1.81916,7.65259-2.68971,11.26688-3.8833C334.06711,88.5475,328.961,93.802,320.12631,93.454c-1.95115-.07689-3.93256.74558-6.48618,1.27558,5.05823,5.2662,15.3739,5.64679,20.35814,2.28385,2.656-1.792,6.111-2.53518,9.29745-2.9809,3.54152-.49538,7.18791-.11339,10.56541-.11339-2.12606,5.94965-9.04576,11.47063-16.65568,8.53514-4.28286-1.65212-9.27614-1.14942-13.9494-1.61744q-.23541.67215-.47084,1.34427l7.38539,6.01548c-5.47812,6.07911-6.14586,6.11428-10.51573,1.75933-9.85716-9.82343-21.1751-11.97208-32.3072-6.13337Zm-125.6294,338.9923c2.48933,2.5495,4.21742,5.00184,6.47975,6.52674,15.824,10.66533,36.28317,9.50543,47.42028-13.17719,2.16352-4.40637,1.548-7.44994-2.63057-9.39056-4.91287-2.28155-10.10677-3.85243-15.16983-5.75935-2.51524-.94736-5.01038-1.95714-7.785-3.04474,5.64886-6.81411,8.87884-7.76694,15.78512-5.89752a65.26,65.26,0,0,0,11.80942,2.11219c12.97139,1.03194,21.19426-4.84965,26.23756-18.41865-.28246-.02758-.65509-.1951-.82312-.06155-9.048,7.1938-19.40791,9.77875-30.39486,10.11406-7.65161.23355-14.40257,3.06527-20.55506,7.89642-6.798,5.338-8.9631,15.87144-3.54059,22.89807,4.086,5.2948,4.76122,10.36674,2.72,16.98873-3.25195-.77842-7.52551,2.61056-10.10921-2.12506C175.9378,441.75293,173.67011,440.46778,161.79505,442.80769Zm143.078-39.35388c-.727,4.30936-1.69868,7.13941-1.57994,9.91484.35617,8.32218,3.87056,15.33947,8.90325,21.42323a8.08137,8.08137,0,0,0,4.79273,2.698c6.05485.759,8.80929,4.95272,11.21441,10.44062,2.63876,6.021,6.16857,11.58505,9.31013,17.34821l1.58038-.34148c-1.51256,2.33143-3.0251,4.66285-4.854,7.48189-4.58714-4.59585-8.64121-8.65756-12.8203-12.84449L314.402,488.8591c3.93031-1.44866,6.61768-1.85954,8.69177-3.30206,10.04564-6.98694,17.41119-16.468,20.58589-29.06293,3.2734-12.98668-.103-20.91949-10.92337-27.529-1.74259-1.06439-3.72931-1.79514-5.23421-3.15713-5.84747-5.29215-11.57521-10.74119-17.281-16.213-1.54838-1.48481-2.86327-3.25443-5.36808-6.14119Z" transform="translate(-52.88977 -52.88976)"/><path class="b" d="M84.05729,298.47448c-7.43183-8.34419-7.47047-20.16338-.49274-28.79641,6.996-8.65575,13.49274-17.7834,20.22791-26.6869.84021-1.11069,1.80055-2.1151,3.0101-3.5239,1.96139,4.72159,4.681,8.47984,2.6376,13.84743-.73705,1.93605-.13742,5.05988.855,7.05925,2.63825,5.31507,2.49272,7.64108-1.12061,12.49639-2.48455,3.33856-4.50489,7.0813-6.55284,10.35583-3.69379-5.16934-3.2314-11.68729,1.69507-19.68533,1.53541-2.49275,2.36607-5.49345,3.51936-8.26154q-1.17115-.64014-2.34235-1.28024c-2.27437,4.70319-5.66911,9.15457-6.629,14.153-4.11832,21.44509,6.376,39.39135,22.1925,50.29395a16.51261,16.51261,0,0,0,8.31474,2.57853c12.36107.58451,19.28048,8.35754,19.09209,21.11117-3.91385-2.37906-8.25393-4.73457-12.28957-7.593a15.548,15.548,0,0,1-4.82354-5.63966c-2.22755-4.57915-2.94937-5.46846-8.60084-6.65249,1.84527,3.934,4.02883,7.50987,5.24812,11.43609a119.344,119.344,0,0,1,4.59761,19.11551c.45692,3.35189-1.10822,7.04466-1.84287,10.56312-.7387,3.538-1.58049,7.05074-2.29068,10.19217-7.27013-5.84517-9.17381-17.62249-3.43308-26.20785,2.53421-3.78992,2.89551-7.99659.76828-11.75873-2.37447-4.19943-5.10209-8.4831-8.55419-11.58749-7.89908-7.10336-16.92252-12.83318-21.88941-23.25937q-.63176.21657-1.26349.43322c.15592,1.9534-.12161,4.10794.55684,5.81893,1.46812,3.7024.80249,6.86308-.35356,10.53426-1.29626,4.11635-1.37772,8.68033-1.92646,12.61071-7.88208-5.00873-9.32779-17.5355-2.35869-25.7876,1.75794-2.08163,3.38907-6.06983,2.74359-8.43685A71.45023,71.45023,0,0,1,91.171,264.8913l-1.69925-.3486c-.55468,2.77875-1.75565,5.62123-1.528,8.32278.45817,5.43693.39687,10.36239-2.25229,15.41338C84.1871,291.1475,84.52574,295.14718,84.05729,298.47448Z" transform="translate(-52.88977 -52.88976)"/><path class="b" d="M287.34767,103.82258c3.14125,2.19325,6.189,4.57382,9.46881,6.48933a7.76426,7.76426,0,0,0,4.80876.74119c5.07186-.763,8.42175,1.46416,9.32234,6.86927a27.4596,27.4596,0,0,1,.15741,6.45431c-.14413,1.95828-.68943,3.88206-.85364,6.57226,16.803-24.97837,38.17492-27.98332,62.95791-16.25858.81984-3.29445-.29907-5.61629-3.50315-6.48419-5.65191-1.53093-8.57949-4.88631-8.61269-11.60892-.01308-2.6524-2.23088-5.29206-3.36094-7.75488,7.979.499,17.50093,11.01854,17.37978,19.9814-.07291,5.39843,1.38581,9.78463,6.589,12.85731-.42586-2.07243-.87463-4.13971-1.27148-6.21863-.44987-2.35691-1.2415-4.73356-1.19347-7.08506.09146-4.47846.67395-8.94519,1.00555-12.86166,7.11922,5.75394,8.642,14.39333,4.122,23.46633-1.07839,2.16461-.36442,5.55689.00582,8.30887.196,1.45628,1.42559,2.74981,2.56964,4.79949-5.7386-.52794-10.64334-.57106-14.504-5.11227-9.37822-11.03155-21.27921-13.87185-34.59659-12.19859-7.12793.89559-12.70528,4.91584-17.78737,9.81995-.99155.95679-1.26342,4.09731-.58631,5.51455,1.85022,3.87274,1.43068,7.01561-1.18664,10.04486-3.10985,3.59938-6.24843,7.16979-9.90019,11.3552,2.32572-20.52071-2.0288-33.74648-12.58318-38.68465,1.67073,4.85174,2.87548,9.63906,4.90132,13.97783,4.933,10.56522,4.36108,21.43379-1.41868,30.07155-1.17882-3.79746-3.02695-8.19691-3.8208-12.80873a24.28085,24.28085,0,0,1,.35586-11.07948c3.37842-10.41645-.48327-20.49464-10.091-24.593-.68195-.29092-1.34647-.62983-2.58545-1.21305,1.70885-1.34928,2.97775-2.3512,4.26743-3.36115C287.42445,103.81539,287.34767,103.82259,287.34767,103.82258Z" transform="translate(-52.88977 -52.88976)"/><path class="b" d="M438.92244,300.73426c1.35759-2.83015,3.17527-5.296,3.74089-8.06159,1.36711-6.6844,3.56993-12.15458,9.10387-16.511,3.00463-2.36532,3.95977-7.777,5.8575-11.85359,2.63669,1.67689,3.43838,4.06364,1.88822,7.65269a18.07644,18.07644,0,0,0-1.514,7.17109C458.19152,292.14292,451.37632,300.06752,438.92244,300.73426Z" transform="translate(-52.88977 -52.88976)"/><path class="b" d="M100.75844,310.5704a57.0987,57.0987,0,0,0,1.472,6.0345c.76245,2.14366,1.365,5.00022,2.90966,6.06349,7.99772,5.50588,10.61486,12.91014,8.08066,22.67621-.53495,2.06166-.77271,4.21361-1.21723,6.71717a7.10822,7.10822,0,0,1-1.31832-1.18184c-2.76033-4.29855-5.1432-8.95067-8.32435-12.84127-2.61749-3.20121-4.29992-6.2824-4.00627-10.63248.36634-5.42675.47769-10.87369.69914-16.3119Z" transform="translate(-52.88977 -52.88976)"/><rect class="b" x="4.7325" y="199.24059" width="461.35306" height="67.94957"/><path class="a" d="M176.85963,292.15311a14.2668,14.2668,0,0,1,.10984,1.86757q0,1.18141-.63185,7.22508a16.1413,16.1413,0,0,1-2.49982,6.01651q-2.143,3.57061-3.62612,4.50519a17.27083,17.27083,0,0,1-4.72526,2.14317,32.20362,32.20362,0,0,1-5.13745.21966h-14.6147a2.45075,2.45075,0,0,1-1.20894-.43933,3.68674,3.68674,0,0,0-.08229-.52241,3.47961,3.47961,0,0,1-.08227-.60469,15.8661,15.8661,0,0,0,2.14277-.90583,5.64632,5.64632,0,0,0,1.97783-2.63761,15.687,15.687,0,0,0,.4673-4.23041q.027-.52242.24723-2.83015.19172-2.1148.19211-3.21354,0-6.18147.08228-6.78575a8.12381,8.12381,0,0,1,.63185-1.59359,5.61485,5.61485,0,0,1-.63185-1.20857,12.84427,12.84427,0,0,1-.16455-2.36283v-4.56031q0-.13659-.08268-1.42824a21.74062,21.74062,0,0,1,.05512-3.02184q.24742-2.71989.24722-3.02183a2.56651,2.56651,0,0,0-.165-.3299,14.891,14.891,0,0,1,.02756-4.6977,32.34992,32.34992,0,0,0-.43934-5.46694,19.82,19.82,0,0,0-.57712-3.87335,3.27972,3.27972,0,0,0-1.9231-1.56563q-.96153-.27441-1.95025-.57753,0-2.60967-.08268-1.09834.027-.71409.65941-.74208,1.34555-.10905,4.34064-.46649,2.77441-.33072,2.85689-.32991h4.01113a11.12554,11.12554,0,0,0,2.32129-.2612,10.34146,10.34146,0,0,1,2.10162-.26121,14.60845,14.60845,0,0,1,2.41755.24763q.19171.02757,3.92846,1.23653,1.9776.63148,3.76352,3.54342a12.9317,12.9317,0,0,1,1.97783,5.35671,25.919,25.919,0,0,1,.165,2.85728,18.75327,18.75327,0,0,1-4.5603,12.44439c.03634.03755.10983.11024.21966.22047a4.72559,4.72559,0,0,1,2.6512,1.05763,12.05846,12.05846,0,0,1,2.87086,2.76063A15.49635,15.49635,0,0,1,176.85963,292.15311Zm-7.19752,4.093a11.73571,11.73571,0,0,0-.687-2.96677q-.52181-1.45579-1.07119-2.93955a21.65491,21.65491,0,0,0-.98891-2.50023,7.74239,7.74239,0,0,0-6.53853-3.65368q-.60447,0-1.703.05512a4.84307,4.84307,0,0,0-2.14276.57673q-.1929,2.39043-.41217,5.74172-.02756,2.25259.05471,4.89021.1096,3.51669.11024,3.65368a72.54619,72.54619,0,0,0,.90623,9.61507,4.37572,4.37572,0,0,0,1.07158,1.62075,8.15412,8.15412,0,0,1,1.20857-.08227q.4673,0,1.35995.06872.89265.06829,1.30482.06872a4.94156,4.94156,0,0,0,3.90131-1.731,24.31133,24.31133,0,0,0,2.30731-2.93956A26.0151,26.0151,0,0,0,169.66211,296.24612Zm1.37351-28.18621q-.24743-.02635-2.19787-.02716a2.98883,2.98883,0,0,1-2.0465-.54956,4.752,4.752,0,0,1-1.16744-2.22544q-.41217-1.318-.7968-2.66477a6.30483,6.30483,0,0,0-1.48335-1.93628,4.13111,4.13111,0,0,0-1.9231-1.223q-3.65383-.68656-4.34064.21967l-.54917,10.2749a1.207,1.207,0,0,0,.16455.53519,1.599,1.599,0,0,1,.165.37144q0,.11022-.3295,3.54342a32.67981,32.67981,0,0,0,.10983,5.57717q1.1808.5224,1.23613.52161a19.323,19.323,0,0,0,5.659-.90663q3.26926-1.48336,3.26906-8.84583,0-.85068-.05471-1.64791a1.26485,1.26485,0,0,1,.30234-.41218,25.50765,25.50765,0,0,0,3.98322-.60469Z" transform="translate(-52.88977 -52.88976)"/><path class="a" d="M210.92455,300.72415a3.0914,3.0914,0,0,1-1.4562.13742q-1.59358-.13779-1.48335-.13742h-2.19748a36.03928,36.03928,0,0,0-6.20862.41218q-1.23654.21927-1.64831-.24763a4.736,4.736,0,0,1,.08228-1.40108,7.70409,7.70409,0,0,0,1.53847-.38422,1.57,1.57,0,0,0,.63185-.82435,1.2602,1.2602,0,0,0,.08227-.90663q-.35706-1.5924-1.09874-4.78-.05571-.19172-.60429-1.56563a5.00323,5.00323,0,0,1-.43973-1.67587q-.02756-.16535-.35706-.16535-.4673,0-4.50559.21967l-5.79644.08307q-.63206-.02756-1.181,1.15346-.275.60509-.76924,1.7861a10.29672,10.29672,0,0,0-.60468,2.27975,13.736,13.736,0,0,0-.27439,1.64791,3.84338,3.84338,0,0,0,0,1.759,3.12068,3.12068,0,0,0,.83754.87867,4.55974,4.55974,0,0,0,1.25011.7964,4.0592,4.0592,0,0,0,.43973.13741q.21927.38581.35706.60469-.57693.16535-1.59359.35706-1.59361-.13779-4.58747-.21967a14.49782,14.49782,0,0,1-1.95065.38422q-.05511,0-2.00537-.24683a.68309.68309,0,0,1-.05511-.24762q0-.3295.82435-.93379a8.22756,8.22756,0,0,1,1.01646-1.07118,3.28937,3.28937,0,0,0,1.09874-1.41466q.4667-1.00288,1.42864-3.11849.41219-1.318,1.23615-3.98358.54938-1.2629,1.40108-3.84539.63148-1.89553,1.84042-5.63229a3.1825,3.1825,0,0,0,.27479-.3291q.08267.4397.22.43933.1917,0,.49445-1.18141a7.17509,7.17509,0,0,0,.27438-1.53848c0-.05511-.00918-.08227-.02716-.08227a2.90939,2.90939,0,0,0-.1925.49445,7.32092,7.32092,0,0,1,.05511-.76924q.43914-1.15384,1.23613-3.406a14.54632,14.54632,0,0,1,1.18142-3.18718q.13719-.4661.41178-1.42824a24.88744,24.88744,0,0,1,.96174-2.47227,5.03621,5.03621,0,0,1,.41218-1.01686q.16475-.19172,1.29085-.11024,1.07176.02873,3.2419.19251.71409,2.06089,2.55494,6.56608a12.77645,12.77645,0,0,0,.30194,1.53848,10.64687,10.64687,0,0,0,1.15386,2.39q-.13781.19171.21967,1.42825.43911.9897,1.29125,2.91239.5769,1.89555,1.7857,5.27443a12.76374,12.76374,0,0,0,.522,2.19748,2.73737,2.73737,0,0,0,.13742.687q.32949.71412,1.18141,2.747.302.43974.824,1.346a1.9155,1.9155,0,0,0,.05511.60469q.384,1.12637,1.181,3.15922.27438.46729.93419,1.703.16475.3295,1.566.85149.41159.13779,1.20857.41218Zm-14.12066-14.395q-.02756-.02757-2.00537-5.46694-.32951-1.09875-1.01646-3.26946-.32951-.659-.87907-1.89554-.16476-.57633-.57673-1.64791-.9891,2.2526-2.19787,4.56031a2.94062,2.94062,0,0,0-.38462.52161q-.0821.41219-.30194,1.26369-.19293.38463-.46729,1.09914-.02757.4673-.13742,1.20858a6.29293,6.29293,0,0,0-.43934.76923q-.13779.63266-.41217,1.78531-.13781.22046-.35706.60468.05451-.30193.05511.4673Z" transform="translate(-52.88977 -52.88976)"/><path class="a" d="M246.72046,267.29068q-.52241.08267-1.51092.27478a2.78125,2.78125,0,0,0-1.64831,1.31881,8.24252,8.24252,0,0,0-1.044,2.96676,30.72877,30.72877,0,0,0-.35706,4.121q0,.11023.10984,2.37641.1096,2.26574.10983,2.40356v4.3678a4.72474,4.72474,0,0,0,.09625.54957,2.4912,2.4912,0,0,1,.06871.71412q-.16475,3.325-.165,3.73676a7.06566,7.06566,0,0,0,.10984.89225q.1096.67338.10983.78279v8.43446c0,.10943.014.16931.04154.17813.02716.00958.04114.02316.04114.04153a13.56559,13.56559,0,0,0-1.731.3299,2.51294,2.51294,0,0,1-1.42824-.24762,76.59815,76.59815,0,0,1-5.60433-6.1539q-.65961-.87828-1.97784-2.52738-1.15386-1.12634-3.13206-3.29662-.49426-.82435-1.64831-2.44511-2.47246-2.99307-7.005-8.81787a21.02411,21.02411,0,0,1-1.64831-1.48336,2.80684,2.80684,0,0,0-.165-.54957q-.32952-.5212-1.09874-1.56641a.89879.89879,0,0,0-.57713.85232q0-.02757.38462,2.80216a1.42494,1.42494,0,0,1-.05472.508,2.52013,2.52013,0,0,0-.08267.45292q0,1.09994.09625,3.39327.09585,2.29333.09625,2.239v3.84531q0,.16536.04114,2.80217.04134,2.63721.04114,2.775,0,5.74173,4.09341,6.04367c.05472,0,.12342.07828.20609.23325a1.4381,1.4381,0,0,0,.17853.28836,1.63193,1.63193,0,0,1-.13741.82436h-9.58745q-.11023,0-1.00289.151-.89319.151-1.03.151h-.43974q-.24743-.24682-.24722-.30194a1.335,1.335,0,0,1,.60428-1.29085,21.25487,21.25487,0,0,0,2.08805-.82436,3.14525,3.14525,0,0,0,1.62075-2.36278q.71406-3.98277.30234-4.86225a.71605.71605,0,0,1-.05511-.659l.21966-.27479-.16455-.24762a7.46448,7.46448,0,0,1,.02716-1.05763q.05512-.75486.05512-1.08476a9.70156,9.70156,0,0,0-.151-1.31881,9.573,9.573,0,0,1-.15137-1.3188,12.33211,12.33211,0,0,0,.10983-1.703q-.02756-.08266-.24723-.54957l.13742-.13741a1.329,1.329,0,0,0,.13742-.60469.17972.17972,0,0,0,0-.19171q-.38463-3.10451-.38462-4.17609v-3.79107q-.19232-3.2411-.19211-3.95562a1.44058,1.44058,0,0,1,.09625-.35706,1.01376,1.01376,0,0,0,.0683-.4673,6.28547,6.28547,0,0,0-5.24687-1.97783l-.13742-.13742v-.90663q.302-.35706,1.48336-.35706.13721,0,2.21146.10943,2.07408.11023,2.21146.11024.10959,0,2.0469-.11024,1.93689-.109,2.07407-.10943a2.78035,2.78035,0,0,1,.76924.05512,6.4936,6.4936,0,0,1,1.59319,1.7853q2.28016,3.21474,6.868,9.55995.9334,1.18142,2.80217,3.51629-.32949,2.41791.68656,2.41794a1.33556,1.33556,0,0,0,.43973-.16455,1.27216,1.27216,0,0,1,.4669-.16535q.35708,0,.96174,1.01687.302.5212.57673,1.01606a11.44662,11.44662,0,0,1,2.49983,2.47226c.07309.31233.20129.76924.38461,1.37393.14658.20209.2652.30194.35706.30194a.43892.43892,0,0,0,.27479-.10943.551.551,0,0,1,.165-.11024q.7417.7968,2.00538,2.33488.4667-.21927.4669-.41138a1.7526,1.7526,0,0,0-.10984-.4673,1.75242,1.75242,0,0,1-.10983-.46729v-2.93956a2.757,2.757,0,0,0-.04114-.3978,4.46145,4.46145,0,0,1-.04114-.67338,10.66939,10.66939,0,0,0,.165-1.48336q-.13779-.7968-.35744-2.33487a2.32863,2.32863,0,0,1,.05511-.82435q.10962-.6039.10984-.687a2.54345,2.54345,0,0,0-.08228-.45291,2.4364,2.4364,0,0,1-.08267-.48087,8.08619,8.08619,0,0,1,0-1.346q.05513-1.07235.05511-1.429a1.58006,1.58006,0,0,0-.12381-.4665,2.96781,2.96781,0,0,1-.151-.49445l.10983-.74208a3.33921,3.33921,0,0,0-.09625-.85149,5.46128,5.46128,0,0,1-.12342-.96174,2.46487,2.46487,0,0,1,.10984-.49446,1.44163,1.44163,0,0,0,.08227-.54956q-.16474-1.12638-.57671-3.29662-.38526-1.42824-3.13167-1.89554a2.36088,2.36088,0,0,0-.10983-.98893,4.21894,4.21894,0,0,1,1.95025-.24683l5,.19171q-.16474,0,2.47227-.16455a6.43338,6.43338,0,0,1,2.4451.19251ZM236.52826,288.279l-.24722.30274-.16456-.16535.13742-.57673Q236.72057,288.27933,236.52826,288.279Z" transform="translate(-52.88977 -52.88976)"/><path class="a" d="M281.11488,300.72415l-4.2304-.08227H274.302l-4.28552.08227a.89338.89338,0,0,1-.05512-.98893q1.20894-.11024,1.209-.52241a.95907.95907,0,0,0-.05512-.30194,13.66881,13.66881,0,0,1-1.15386-1.09914q-.02756-.21927-.63184-.7964-1.42824-1.34553-3.98318-3.51628-.52242-.57753-1.566-1.5936a15.46725,15.46725,0,0,1-1.67584-1.29082q.43914-.11023.41218-.11023l.63184.21966a5.32643,5.32643,0,0,0,.687.19251,2.00338,2.00338,0,0,0-1.31881-.85148,1.36134,1.36134,0,0,1-.41218-.42576.6856.6856,0,0,0-.60428-.34348c0,.1286.10061.21967.30234.27478a2.49051,2.49051,0,0,1-.19251.49446,8.92155,8.92155,0,0,1-.90623-.4673,3.16831,3.16831,0,0,0-.38462-.49445,4.95077,4.95077,0,0,1-1.044-.49445q-.24742-.38463-.93419-1.26369-.41218-.2744-1.181-.90663a11.71411,11.71411,0,0,0-1.3188-1.01607q-.32951.21927-.21967,1.67587.08208.7968.21967,2.41715-.05513.93458-.10984,2.775.08208.82313.27479,2.47227.13719.55.35706,1.56563a5.36548,5.36548,0,0,0,.10983,1.20857,3.29064,3.29064,0,0,0,2.30772,1.67587,7.12068,7.12068,0,0,1,1.6483.49445q.027.71532-.13741.85149-.52244.02756-1.75815.19251h-2.47266q-.05514,0-.74168-.13742a6.02548,6.02548,0,0,0-.90663-.13741,11.43974,11.43974,0,0,0-1.84042.05511q-1.34614.1366-1.26369.13742H247.792a2.0238,2.0238,0,0,1-1.044,0q-.65961-.16535-.6594-.659a.90514.90514,0,0,1,.02757-.22047q.109-.21927.7964-.3291a4.73051,4.73051,0,0,0,1.23653-.30274,3.38132,3.38132,0,0,0,1.31841-1.40109,8.39229,8.39229,0,0,0,.41217-2.25259q.1372-1.23534.32951-3.736-.08208-1.29041-.10984-3.84619a3.87159,3.87159,0,0,1,.65942-1.29085c0,.05512-.10065-.04153-.30235-.28836a1.36773,1.36773,0,0,1-.30194-.89305V282.7577a6.72579,6.72579,0,0,1,.05472-1.59359,5.99844,5.99844,0,0,1,.13742-3.02183,1.22626,1.22626,0,0,0-.27439-1.12635v-2.088c0-.25642-.01881-.31074-.05512-.16456a.70358.70358,0,0,0,.21967-.385v-3.73591a5.33754,5.33754,0,0,0-.30194-1.59359,2.31563,2.31563,0,0,0-.96175-1.4554,9.70769,9.70769,0,0,0-2.71949-.63185.89068.89068,0,0,1-.05512-.27478q0-.74167,1.209-.687l4.3678.24682h2.17032c.018,0,.20613-.03115.56315-.09585a5.45356,5.45356,0,0,1,.94777-.09586q3.29682,0,4.06585-.08307a.95817.95817,0,0,1,.19211.54957c0,.01837-.00918.10142-.02716.24762v.27479q-.79739.16414-1.59359.3291a2.9585,2.9585,0,0,0-1.62075,1.31881,13.06642,13.06642,0,0,0-.24722,1.51132q-.19232,1.07118-.54957,3.21434a2.16557,2.16557,0,0,0,.08267.659,3.57983,3.57983,0,0,1,.16455.93379.70085.70085,0,0,1-.12341.24763.63338.63338,0,0,0-.12381.27478,2.5838,2.5838,0,0,0,.08267.96095q-.11024.63264-.19251,1.67587,0,.02756.27479,1.70382a8.45965,8.45965,0,0,0,.08227,2.39q.08268-.05511.71452-.54957.41219-.43974,1.20858-1.31881,2.74685-2.775,3.73635-3.92846.27378-.16535.85149-.60469,2.143-2.05968,3.40645-3.51628.35646-.38461,1.12635-1.346a14.41772,14.41772,0,0,0,.98893-1.731,1.15019,1.15019,0,0,0-.16455-1.38671,2.32891,2.32891,0,0,0-1.42864-.75565q-.71472-.08268-1.42864-.19251a1.62977,1.62977,0,0,1-.10984-.82436,13.23727,13.23727,0,0,1,4.53275.05512,3.165,3.165,0,0,1,.687-.13742,6.71971,6.71971,0,0,1,1.044.13742q1.9776-.08268,5.60393-.27479a4.75,4.75,0,0,1-.13742,1.15426,5.60852,5.60852,0,0,0-3.35133.659q-.49489.4673-1.64831,1.51132c-.12821.07349-.32072.19171-.57713.35706q-1.92309,2.08725-5.41182,5.824a3.864,3.864,0,0,0-.54957.27478q-.52182.43974-3.3789,3.434-.275.41219-.90663,1.26369-.49424.4673-1.40108,1.45541a4.86913,4.86913,0,0,1,.6594.385q1.34556,1.18142,2.69234,2.60966a1.36641,1.36641,0,0,0,.1921.43934q.934.93457,2.82973,2.69273.41217.24683,1.26369.79639a17.24428,17.24428,0,0,1,2.19788,2.17032,7.2967,7.2967,0,0,0,1.1263,1.01607q.35646.1929,1.044.57753.27378.38461.76924,1.044.1917.1917,2.60965,2.19748a25.75348,25.75348,0,0,0,2.77461,2.55449,3.67628,3.67628,0,0,0,.38462.385q.60389.27438,1.95065.85148.35646.02757.98893.05512A1.86981,1.86981,0,0,1,281.11488,300.72415Z" transform="translate(-52.88977 -52.88976)"/><path class="a" d="M345.04188,307.53706q0,.32951-.028.659a.60174.60174,0,0,1-.3986.536,8.24566,8.24566,0,0,1-1.41466.26121,13.66778,13.66778,0,0,0-1.51052.41138,5.76825,5.76825,0,0,1-1.5664.3299,1.49064,1.49064,0,0,1-.35706-.04074,1.7954,1.7954,0,0,1-.52162-.31632q-.46728-.32951-.385-.54957a1.74293,1.74293,0,0,0-1.15346.08227q.57633.30195,1.40108.76924a4.8635,4.8635,0,0,1-2.775-.38422c.03674-.16455.10059-.42176.19251-.76924a1.1945,1.1945,0,0,0-.16456-.11023,22.16206,22.16206,0,0,0-2.30771-.24683c0-.01837-.0647.02716-.19251.13742q.21927.109.63185.30194a3.16434,3.16434,0,0,1-1.56564-.16455q-.32949-.43973-.6598-.85149-.63149-.71532-1.12635-.60468a34.77916,34.77916,0,0,0-2.99387-3.15923,9.78414,9.78414,0,0,1-2.14316-2.41715,3.94257,3.94257,0,0,1-.687-.57752,11.05068,11.05068,0,0,1-.98893-1.62075.47411.47411,0,0,0-.43933-.302,4.11922,4.11922,0,0,0-1.703-2.1152.4919.4919,0,0,0,.05511-.57673q-.68777-.7968-1.40108-1.62155a3.17467,3.17467,0,0,1-.93459-1.89553,1.38584,1.38584,0,0,1,.028-.274c.05432-.05511.25561-.04553.60389.02716q.13779.11024.41217.302a1.87534,1.87534,0,0,0,.96175-.43934,16.27154,16.27154,0,0,1,1.29085,1.346.45866.45866,0,0,0,.41218-.49446q0-.71412-.7964-.687a.7838.7838,0,0,0,.12381-.19171.36555.36555,0,0,1,.123-.16535,6.13356,6.13356,0,0,0,.54957.385.37049.37049,0,0,0,.3299-.16535,2.05181,2.05181,0,0,0,0-.82356,2.3292,2.3292,0,0,0-1.53848-.54956,6.80074,6.80074,0,0,0-1.4562.23324,6.73611,6.73611,0,0,1-1.37312.23325,1.789,1.789,0,0,1-.90663-.21967,2.74689,2.74689,0,0,1-1.26369-1.92269c-.09186-.07269-.21088-.17414-.35706-.30195.01757-.07348.03594-.147.05432-.22046a.94187.94187,0,0,0-.4665-.76924,1.54878,1.54878,0,0,0-.87947-.3291q-1.566.02756-4.23041,0-3.13206-.02757-4.2304-.028a.219.219,0,0,0-.24763.24763,12.79261,12.79261,0,0,0,0,1.81326v3.54342q.109,3.077.11023,3.84618a1.63889,1.63889,0,0,1-.12381.43934.87361.87361,0,0,0-.06872.52241,6.60654,6.60654,0,0,1,.57673,1.15346,10.21721,10.21721,0,0,1,.19251,2.58249l-1.23653.87948a.25024.25024,0,0,0,.08227.21966,34.9255,34.9255,0,0,1,4.91737.63185q.27438.08148.82435.27478a4.10753,4.10753,0,0,1-.08227,1.12635,1.35642,1.35642,0,0,1-.76924.3291q-.82436,0-4.39573-.52161l-5.96139-.11023a13.95422,13.95422,0,0,1-1.81246.3299q-1.95186.08268-4.64339.08228,0-.46729.028-1.346a21.952,21.952,0,0,1,2.55454-.7964,3.85062,3.85062,0,0,0,1.86838-1.44262,4.02976,4.02976,0,0,0,1.044-2.01935q.35579-3.81742.35706-4.17529V275.53262c0-.07349-.028-.29316-.08228-.6598a6.12227,6.12227,0,0,1-.08227-.74128,12.49645,12.49645,0,0,1,.10943-1.67587q.13779-1.31921.13742-2.088,0-.3295-.11023-1.26369a12.99208,12.99208,0,0,1-.1366-1.51052q-.05631-.7968-.30274-2.33567-.19172-.38461-.52161-1.18142-.248-.96094-2.17032-1.48335-.248-.109-.85149-.35707-.49489,0-1.40108-.05511-.66021-.43854-.19251-1.318.7968-.19172,2.36283-.44013,4.45008-.35588,5.137-.35707H306.334q.109,0,1.55205-.16455,1.44262-.16535,1.57922-.16455h2.19828q.13659,0,.87867.08228.85191.08267,1.18141.10943.52122-.08148,1.51132-.13742,2.82892.35829,6.40073,1.18142,1.318.30312,5.32954,3.48913a.69222.69222,0,0,1,0,.60468,8.29707,8.29707,0,0,1-1.88195,1.195,7.6033,7.6033,0,0,0-1.90914,1.24931c.03674.22047.24682.35706.63184.41218a2.0987,2.0987,0,0,0,.90663-.08228.82006.82006,0,0,1,.3291-.35706,7.2695,7.2695,0,0,1,1.09914-.13742,2.35218,2.35218,0,0,0,.63185.96175.55978.55978,0,0,0,.43933-.57673,1.15747,1.15747,0,0,0-.41137-.76924,1.46555,1.46555,0,0,1,.79639,0,3.77388,3.77388,0,0,0,1.01607.16456q.27438,1.42824.57752,2.85728a16.991,16.991,0,0,1,.38422,3.21354,7.62612,7.62612,0,0,1-.24682,2.00577,37.111,37.111,0,0,1-1.5936,4.39573,28.62232,28.62232,0,0,1-2.69273,3.65368q-.05511.08268-2.5817,2.005a20.9846,20.9846,0,0,0,2.17033,3.21434,17.03818,17.03818,0,0,1,1.703,2.50023,16.80485,16.80485,0,0,0,1.01606,1.73018,3.70325,3.70325,0,0,0,.19251.49445q1.53848,1.86918,4.42292,5.57718a.29578.29578,0,0,1,0,.30194q1.15385.87946,2.88444,2.50022.76923.768,2.1152,2.33487-.87943.08268-.87867.82436a.97392.97392,0,0,0,.687.96174q.13659-.98973.85149-.98893a.90434.90434,0,0,1,.21967.02716q.109.02637,1.346.63185,1.84038.907,3.68166,1.81326A6.13594,6.13594,0,0,0,345.04188,307.53706Zm-22.08742-32.66424q-.74169-.24682-.74208-.74128v-2.9124a.96512.96512,0,0,0-.08228-.34348c-.05511-.13742-.09186-.23325-.11023-.28837a8.50547,8.50547,0,0,0-1.75814-3.98358,6.35784,6.35784,0,0,0-3.65368-2.82934,5.8402,5.8402,0,0,0-.74128-.35707q-2.775-.57631-3.13207-.57672h-2.41715a8.24512,8.24512,0,0,0-2.50022.35706,4.33123,4.33123,0,0,0-.63184.659,15.68688,15.68688,0,0,1,.16455,1.81326.57251.57251,0,0,1-.09586.16535.47185.47185,0,0,0-.09585.274v3.81906a1.37306,1.37306,0,0,1-.16535.48087.97451.97451,0,0,0-.13742.508q.16535.659.35706,1.29085a2.10907,2.10907,0,0,1,0,1.26369,7.41043,7.41043,0,0,0-.10943,3.434q-.05512-.43854-.05512,1.29165v3.92846a5.76681,5.76681,0,0,1-.08228.87868,2.59266,2.59266,0,0,0-.028.63184,5.45288,5.45288,0,0,0,.35786.96175q.659.1929,1.92269.46729l5.35671.10944q.85191-.35706,2.58249-1.01607a11.62834,11.62834,0,0,0,1.731-.71489,10.91971,10.91971,0,0,0,2.30771-2.77421,9.02847,9.02847,0,0,0,.87867-2.80217q.02756-.52121.19251-1.59359.05512-.41217.19251-1.07118Q322.59662,274.79056,322.95446,274.87282Zm-1.64871,17.00548q-.32951.38461-.63185.30194a.58069.58069,0,0,1,.385-.43934c.036.0184.119.06393.24683.13742Z" transform="translate(-52.88977 -52.88976)"/><path class="a" d="M368.96972,283.41671q0,1.566-.08227,2.39a11.98875,11.98875,0,0,0-.57673,1.95065,9.70419,9.70419,0,0,1-.57673,2.80216q-.43974.55-1.29165,1.78531a9.50265,9.50265,0,0,1-1.20857,2.36282q-.7968.7968-2.41715,2.47227a5.0898,5.0898,0,0,0-.63185.27478,13.28862,13.28862,0,0,1-1.26369.96175,22.25437,22.25437,0,0,1-8.57184,2.71989h-3.62572c.03594,0-.03675-.05512-.21967-.16535a11.03333,11.03333,0,0,1-4.45088-.82356q-.38461-.08267-1.044-.27478-1.09874-.43974-3.29662-1.56641a19.25075,19.25075,0,0,1-4.94452-4.72486,16.92438,16.92438,0,0,1-2.28056-4.39573,15.29776,15.29776,0,0,1-1.04322-4.20325,26.92682,26.92682,0,0,1,.21967-5.71376q.16414-.35706.43933-1.01687.16416-.82315.57673-2.39.60389-.96094,1.59359-2.80216a1.72047,1.72047,0,0,0,.13742-.71407c.09106-.09106.27479-.06391.54957.08227a2.19382,2.19382,0,0,0,0-1.09834,6.23833,6.23833,0,0,0,1.01606-.46729,4.45782,4.45782,0,0,1,1.044-1.40108q1.64871-.87828,4.97248-2.5825a10.38859,10.38859,0,0,1,2.17032-.71407,25.16066,25.16066,0,0,1,4.56031-.76924h2.14231a17.11508,17.11508,0,0,1,4.28553.46729q.96214.2744,4.2312,1.53848.68656.43974,2.17032,1.37312a14.81862,14.81862,0,0,1,3.90051,3.76392,11.97355,11.97355,0,0,1,2.03293,3.95562,8.92991,8.92991,0,0,1,.54957.90663,16.24248,16.24248,0,0,1,.687,4.89021,2.36293,2.36293,0,0,0,.12381.508A2.26512,2.26512,0,0,1,368.96972,283.41671Zm-6.09878.71407a21.857,21.857,0,0,0-1.346-6.31845,18.48129,18.48129,0,0,0-3.29662-5.796,10.18133,10.18133,0,0,0-5.87911-3.48913,16.22831,16.22831,0,0,0-4.14813-.3299,13.24108,13.24108,0,0,0-3.736.96174q-.1929.08268-2.50022,1.4562a3.06682,3.06682,0,0,1-.49445.659,4.0056,4.0056,0,0,0-.49446.16455q-.55.71532-1.37312,1.92349-.11023.32951-.35706.93379-.41218.659-.87947,1.56563-.24683,1.01727-.76924,3.0498.02756.76923-.02716,2.33487a1.31975,1.31975,0,0,1-.11023.35706.74223.74223,0,0,0-.08228.385q.38461,1.7853,1.09914,4.94452a2.01438,2.01438,0,0,0-.11023.52241q.1917.38463.54957,1.044a6.30315,6.30315,0,0,0,.16455.93379q1.15386,2.3077,1.20937,2.362a11.27616,11.27616,0,0,0,2.2526,2.71989q.02635.02756.35706,1.12634.109.02757.93379.16535a15.59056,15.59056,0,0,0,2.06008,1.67587q2.03332,1.20894,7.3625.74128.43974-.13659,1.15426-.35706a15.96868,15.96868,0,0,0,2.60965-.90663q.38463-.35706,1.01687-.85149a6.56651,6.56651,0,0,0,3.26866-4.20325,9.44093,9.44093,0,0,0,.659-.93378c.03675-.34828.09186-.75966.16535-1.23654a1.84505,1.84505,0,0,0,.3299-.52161q.05392-.63148.274-2.74705a14.04982,14.04982,0,0,0,.13735-2.33569Z" transform="translate(-52.88977 -52.88976)"/><path class="a" d="M408.80392,283.41671q0,1.566-.08227,2.39a11.99033,11.99033,0,0,0-.57673,1.95065,9.70386,9.70386,0,0,1-.57673,2.80216q-.43973.55-1.29165,1.78531a9.50232,9.50232,0,0,1-1.20857,2.36282q-.7968.7968-2.41715,2.47227a5.089,5.089,0,0,0-.63184.27478,13.28988,13.28988,0,0,1-1.26369.96175,22.25441,22.25441,0,0,1-8.57185,2.71989h-3.62572c.03595,0-.03674-.05512-.21967-.16535a11.03332,11.03332,0,0,1-4.45087-.82356q-.38461-.08267-1.044-.27478-1.09875-.43974-3.29662-1.56641a19.25145,19.25145,0,0,1-4.94453-4.72486,16.92528,16.92528,0,0,1-2.28055-4.39573,15.29778,15.29778,0,0,1-1.04323-4.20325,26.92551,26.92551,0,0,1,.21967-5.71376q.16416-.35706.43934-1.01687.16415-.82315.57672-2.39.6039-.96094,1.5936-2.80216a1.72047,1.72047,0,0,0,.13741-.71407c.09107-.09106.27479-.06391.54957.08227a2.1936,2.1936,0,0,0,0-1.09834,6.238,6.238,0,0,0,1.01607-.46729,4.45748,4.45748,0,0,1,1.044-1.40108q1.64871-.87828,4.97249-2.5825a10.38821,10.38821,0,0,1,2.17032-.71407,25.16051,25.16051,0,0,1,4.56031-.76924h2.14236a17.115,17.115,0,0,1,4.28552.46729q.96214.2744,4.23121,1.53848.68657.43974,2.17032,1.37312a14.81858,14.81858,0,0,1,3.9005,3.76392,11.973,11.973,0,0,1,2.03293,3.95562,8.92628,8.92628,0,0,1,.54957.90663,16.24185,16.24185,0,0,1,.687,4.89021,2.36236,2.36236,0,0,0,.12382.508A2.26392,2.26392,0,0,1,408.80392,283.41671Zm-6.09878.71407a21.85693,21.85693,0,0,0-1.346-6.31845,18.48169,18.48169,0,0,0-3.29662-5.796,10.18139,10.18139,0,0,0-5.87912-3.48913,16.22824,16.22824,0,0,0-4.14813-.3299,13.241,13.241,0,0,0-3.736.96174q-.19291.08268-2.50023,1.4562a3.06649,3.06649,0,0,1-.49445.659,4.00489,4.00489,0,0,0-.49445.16455q-.55.71532-1.37313,1.92349-.11023.32951-.35706.93379-.41217.659-.87947,1.56563-.24683,1.01727-.76924,3.0498.02757.76923-.02715,2.33487a1.31977,1.31977,0,0,1-.11024.35706.74222.74222,0,0,0-.08227.385q.38461,1.7853,1.09914,4.94452a2.0148,2.0148,0,0,0-.11024.52241q.19171.38463.54957,1.044a6.30575,6.30575,0,0,0,.16455.93379q1.15386,2.3077,1.20937,2.362a11.27616,11.27616,0,0,0,2.2526,2.71989q.02635.02756.35706,1.12634.109.02757.93379.16535a15.59065,15.59065,0,0,0,2.06009,1.67587q2.03332,1.20894,7.3625.74128.43972-.13659,1.15425-.35706a15.96879,15.96879,0,0,0,2.60966-.90663q.38461-.35706,1.01686-.85149a6.56645,6.56645,0,0,0,3.26866-4.20325,9.441,9.441,0,0,0,.659-.93378c.03674-.34828.09186-.75966.16535-1.23654a1.84594,1.84594,0,0,0,.3299-.52161q.05391-.63148.274-2.74705a14.05087,14.05087,0,0,0,.13732-2.33569Z" transform="translate(-52.88977 -52.88976)"/><path class="a" d="M436.33113,266.5494q-.16536,1.04363-.385,2.49942v6.37357a2.68735,2.68735,0,0,0-.49445.08227,2.62033,2.62033,0,0,1-.49446.08228q-.05511-.21927-.43933-3.26866a3.61583,3.61583,0,0,0-1.62075-2.69191q-.60508-.43974-2.85729.05432-1.12629.11023-3.2415.52241a1.335,1.335,0,0,0-.93459.93379,14.673,14.673,0,0,0-.09585,5.08272,46.13589,46.13589,0,0,1-.20614,9.14777q0-.02756.35706,3.79108-.11027,1.318-.05512,3.95562.30192,1.40189.87948,4.25836a2.21155,2.21155,0,0,0,1.84041,1.75815q1.26407.30313,2.52739.57672a2.35708,2.35708,0,0,1-.63185,1.20858H414.90263c-.147,0-.21966-.10944-.21966-.3291,0-.05512.00878-.2013.02715-.43934a22.23312,22.23312,0,0,0,2.50023-.7972,5.56076,5.56076,0,0,0,2.1152-1.84041,9.49374,9.49374,0,0,0,.385-2.47227q.109-3.79107.27478-7.9392v-9.88988h.74128a.83687.83687,0,0,0,.19251-.24763q-.38461-.907-.93379-2.60965-.05631-.3295-.44013-4.20325h-5.08187a3.60475,3.60475,0,0,0-1.97784.87947q-1.18144.87947-1.29165,1.42824a13.48349,13.48349,0,0,1-1.12634,3.3789q-.27439.46728-1.23574.46729a6.32419,6.32419,0,0,0-.11023-.687,1.94738,1.94738,0,0,1-.02716-.71407,24.8129,24.8129,0,0,0,.63185-3.48913q.35586-2.85648.54957-3.84619l.87867-1.15346q-.82436-.08267,5.0276-.08227,1.70262,0,5.17857.30194,3.47472.302,3.33736.302h4.53315q-.02756,0,1.64791-.27479a34.78894,34.78894,0,0,1,3.48913-.35706q.63148-.08268,1.26369-.16455A1.0175,1.0175,0,0,1,436.33113,266.5494Z" transform="translate(-52.88977 -52.88976)"/></svg>